<?xml version="1.0" encoding="utf-8"?>
<!-- Generator: Adobe Illustrator 16.0.0, SVG Export Plug-In . SVG Version: 6.00 Build 0)  -->
<!DOCTYPE svg PUBLIC "-//W3C//DTD SVG 1.1//EN" "http://www.w3.org/Graphics/SVG/1.1/DTD/svg11.dtd">
<svg version="1.1" id="Layer_1" xmlns="http://www.w3.org/2000/svg" xmlns:xlink="http://www.w3.org/1999/xlink" x="0px" y="0px"
	 width="354.33px" height="62.361px" viewBox="0 0 354.33 62.361" enable-background="new 0 0 354.33 62.361" xml:space="preserve">
<g>
	<g>
		<polygon fill="#004BA0" points="234.235,15.695 251.057,15.695 251.057,22.448 234.235,22.448 234.235,33.387 251.057,33.387 
			251.057,35.479 234.235,45.197 234.235,58.662 264.565,41.144 264.565,4.756 234.235,4.756 		"/>
		<polygon fill="#004BA0" points="284.786,4.756 267.921,4.756 267.921,15.564 271.276,15.564 271.276,57.006 284.786,49.206 
			284.786,33.387 290.669,33.387 290.669,22.448 284.786,22.448 		"/>
		<polygon fill="#004BA0" points="294.896,15.695 311.718,15.695 311.718,22.448 294.896,22.448 294.896,41.144 325.226,58.662 
			325.226,45.197 308.361,35.479 308.361,33.387 325.226,33.387 325.226,4.756 294.896,4.756 		"/>
		<polygon fill="#004BA0" points="345.448,4.756 328.582,4.756 328.582,15.564 331.937,15.564 331.937,52.562 345.448,60.362 
			345.448,33.387 351.33,33.387 351.33,22.448 345.448,22.448 		"/>
	</g>
	<g>
		<polygon fill="#004BA0" points="45.715,26.85 63.147,26.85 63.147,29.421 49.638,29.421 49.638,34.389 75.871,34.389 
			75.871,36.786 48.897,36.786 48.897,41.101 51.032,41.101 51.032,48.64 82.583,48.64 82.583,43.846 56.74,43.846 56.74,41.362 
			81.667,41.362 81.667,29.421 68.943,29.421 68.943,26.85 86.374,26.85 86.374,21.882 45.715,21.882 		"/>
		<path fill="#004BA0" d="M51.948,19.53h28.805V4.756H49.419v4.706h2.528V19.53L51.948,19.53z M57.83,9.68h17.126v4.925H57.83V9.68z
			"/>
		<path fill="#004BA0" d="M100.929,30.86l5.928,1.567c0.915-3.225,1.003-4.532,1.046-6.798h11.81v4.314h-8.279v4.75h8.279v3.616
			h5.884V2.227h-9.457v4.75h3.573v13.422h-7.146c0.565-4.053,0.828-8.759,0.828-14.25H91.562v5.272h15.992
			c0,2.789-0.174,6.058-0.739,8.978H89.513v5.229h12.508C102.019,27.809,102.019,28.942,100.929,30.86z"/>
		<polygon fill="#004BA0" points="101.452,33.78 92.519,33.78 92.519,38.355 95.699,38.355 95.699,48.509 126.946,48.509 
			126.946,43.192 101.452,43.192 		"/>
		<polygon fill="#004BA0" points="163.682,7.197 165.163,7.197 165.163,14.953 162.07,14.953 162.07,2.664 153.398,2.664 
			153.398,7.37 156.187,7.37 156.187,28.724 162.07,28.724 162.07,20.227 165.163,20.227 165.163,30.205 171.047,30.205 
			171.047,2.49 163.682,2.49 		"/>
		<path fill="#004BA0" d="M29.33,32.297H15.472c-4.75,0-8.628,3.879-8.628,8.629s3.878,8.585,8.628,8.585H29.33
			c4.75,0,8.628-3.878,8.628-8.585C37.915,36.176,34.08,32.297,29.33,32.297z M29.33,44.412H15.472
			c-1.917,0-3.485-1.568-3.485-3.486c0-1.917,1.568-3.486,3.485-3.486H29.33c1.917,0,3.486,1.569,3.486,3.486
			C32.817,42.844,31.247,44.412,29.33,44.412z"/>
		<polygon fill="#004BA0" points="25.278,20.227 37,20.227 37,14.953 14.034,14.953 14.034,10.029 36.869,10.029 36.869,4.756 
			5.623,4.756 5.623,9.506 8.239,9.506 8.239,20.227 19.482,20.227 19.482,23.843 2.05,23.843 2.05,29.073 42.708,29.073 
			42.708,23.843 25.278,23.843 		"/>
		<path fill="#004BA0" d="M203.033,32.297h-13.858c-4.75,0-8.628,3.879-8.628,8.629s3.878,8.585,8.628,8.585h13.858
			c4.75,0,8.628-3.878,8.628-8.585C211.661,36.176,207.783,32.297,203.033,32.297z M203.033,44.412h-13.858
			c-1.917,0-3.486-1.568-3.486-3.486c0-1.917,1.569-3.486,3.486-3.486h13.858c1.917,0,3.485,1.569,3.485,3.486
			C206.562,42.844,204.95,44.412,203.033,44.412z"/>
		<polygon fill="#004BA0" points="199.023,23.843 199.023,20.227 210.746,20.227 210.746,14.953 187.781,14.953 187.781,10.029 
			210.573,10.029 210.573,4.756 179.37,4.756 179.37,9.506 181.942,9.506 181.942,20.227 193.184,20.227 193.184,23.843 
			175.797,23.843 175.797,29.073 216.455,29.073 216.455,23.843 		"/>
		<path fill="#004BA0" d="M162.114,32.297h-13.858c-4.75,0-8.628,3.879-8.628,8.629s3.878,8.585,8.628,8.585h13.858
			c4.75,0,8.628-3.878,8.628-8.585C170.698,36.176,166.864,32.297,162.114,32.297z M162.114,44.412h-13.858
			c-1.917,0-3.485-1.568-3.485-3.486c0-1.917,1.568-3.486,3.485-3.486h13.858c1.917,0,3.485,1.569,3.485,3.486
			C165.6,42.844,164.031,44.412,162.114,44.412z"/>
		<path fill="#004BA0" d="M144.333,29.858c4.75,0,8.629-3.88,8.629-8.63c0-3.225-1.787-6.058-4.445-7.539h5.316V8.373h-8.104V3.71
			h-5.884v4.663h-8.235v5.315h5.315c-2.614,1.481-4.4,4.271-4.4,7.539c0,4.75,3.878,8.63,8.628,8.63H144.333z M137.578,21.273
			c0-1.918,1.569-3.485,3.486-3.485h3.269c1.918,0,3.486,1.567,3.486,3.485c0,1.917-1.568,3.485-3.486,3.485h-3.269
			C139.148,24.758,137.578,23.19,137.578,21.273z"/>
	</g>
</g>
</svg>
